<?xml version="1.0" encoding="iso-8859-1"?>
<!-- Generator: Adobe Illustrator 19.0.0, SVG Export Plug-In . SVG Version: 6.00 Build 0)  -->
<svg version="1.1" id="Layer_1" xmlns="http://www.w3.org/2000/svg" xmlns:xlink="http://www.w3.org/1999/xlink" x="0px" y="0px"
	 viewBox="0 0 508.4 508.4" style="enable-background:new 0 0 508.4 508.4;" xml:space="preserve">
<path style="fill:#324A5E;" d="M508.2,254c0,62.8-22.8,120.4-60.8,164.8c-42.8,50-104.4,83.2-174,88.8c-4,0.4-8,0.4-12,0.8h-0.8
	c-1.2,0-2.4,0-4,0c-0.8,0-1.6,0-2,0c-0.8,0-1.6,0-2,0h-1.2c-1.2,0-2.4,0-4,0c-4,0-8-0.4-12-0.8c-69.6-5.2-131.6-38.4-174.4-88.8
	C23,374.4,0.2,316.8,0.2,254c0-140.4,113.6-254,254-254S508.2,113.6,508.2,254z"/>
<polygon style="fill:#FFFFFF;" points="205.4,302.8 303,302.8 365,413.6 337,450 171.4,450 143.4,413.6 "/>
<path style="fill:#FF7058;" d="M298.6,390.8c0,0-17.6,90-38.4,117.2c-1.2,0-2.4,0-4,0c-0.8,0-1.6,0-2,0c-0.8,0-1.6,0-2,0H251
	c-11.2-20.8-46.8-90.4-41.2-117.2C209.8,390.8,245,415.6,298.6,390.8z"/>
<path style="fill:#FFFFFF;" d="M304.2,304c-0.4-0.4-0.4-1.2-0.8-1.6c0,0-0.8,4-6,10.8c-22,27.2-64.4,27.2-86,0
	c-5.2-6.4-6-10.8-6-10.8c-0.4,0.4-0.4,0.8-0.8,1.2c1.6-3.2,2.8-6.8,3.2-10.4l1.2-14.4l0,0l3.2-44.4H297l4.4,58.8
	c0.4,3.2,1.2,6.4,2.4,9.2C303.4,302.8,303.8,303.6,304.2,304z"/>
<g>
	<path style="fill:#2C9984;" d="M247,508c-74.8-2-141.2-36.4-186.4-89.2c20.4-42.8,51.2-46,51.2-46c54.4-26.4,86.8-63.2,88.8-65.6
		L189,332.4l23.2,99.6L247,508z"/>
	<path style="fill:#2C9984;" d="M447.8,418.8C402.6,471.6,336.2,506,261.4,508l34.8-75.6l23.2-99.6l-11.6-25.2
		c2,2.4,34.4,39.2,88.8,65.2C396.2,372.4,427,376,447.8,418.8z"/>
</g>
<g>
	<path style="fill:#4CDBC4;" d="M212.6,397.2c0,0,20.8,60,39.2,110.8c-1.6,0-3.2,0-4.8,0c-4,0-8-0.4-12-0.8
		c-15.2-22-32.4-45.2-54.8-57.2l6.8-36.4h-34.8c14.4-65.2,50.8-108.8,53.2-111.2C204.2,305.2,186.6,340,212.6,397.2z"/>
	<path style="fill:#4CDBC4;" d="M321.4,413.6l6.8,36.4c-22.4,12-39.2,35.2-54.8,57.2c-4,0.4-8,0.4-12,0.8c-1.6,0-3.2,0-4.8,0
		c18.4-50.8,39.2-110.8,39.2-110.8c26.4-57.2,8.8-92,7.6-94.8c2.4,2,38.8,46,53.2,111.2L321.4,413.6L321.4,413.6z"/>
</g>
<path style="fill:#E6E9EE;" d="M300.2,286c-13.2,15.6-28.8,25.6-46,25.6s-32.8-10-46-25.6l0.4-5.6l0,0l3.2-44.4h84.8L300.2,286z"/>
<g>
	<path style="fill:#FFFFFF;" d="M181,141.2c-4.8,10-7.6,22.8-7.6,37.6c0,55.6,36.4,125.2,81.2,125.2s81.2-69.6,81.2-125.2
		c0-15.2-2.8-27.6-7.6-37.6L181,141.2L181,141.2z"/>
	<path style="fill:#FFFFFF;" d="M349.4,212.4c-5.6,13.2-16,20.4-22.8,16.8c-6.8-3.6-8-17.2-2-30.4c5.6-13.2,16-20.4,22.8-16.8
		C354.2,185.6,355,199.6,349.4,212.4z"/>
	<path style="fill:#FFFFFF;" d="M159,212.4c5.6,13.2,16,20.4,22.8,16.8c6.8-3.6,8-17.2,2-30.4c-5.6-13.2-16-20.4-22.8-16.8
		C154.2,185.6,153.4,199.6,159,212.4z"/>
</g>
<g>
	<path style="fill:#2B3B4E;" d="M183,136.8h-18.8c-2.4,8-3.6,16.8-3.6,25.6c0,20,6.4,38.8,17.6,54c-3.2-12.8-4.8-25.6-4.8-37.6
		C173.4,161.6,176.6,148,183,136.8z"/>
	<path style="fill:#2B3B4E;" d="M325.4,136.8c6,10.8,9.6,24.8,9.6,42c0,12-1.6,25.2-4.8,37.6c11.2-15.2,17.6-33.6,17.6-54
		c0-8.8-1.2-17.6-3.6-25.6L325.4,136.8L325.4,136.8z"/>
	<path style="fill:#2B3B4E;" d="M348.2,162.8c0,6.4-0.8,12.8-2,18.8c-3.2-1.2-7.2,0-10.8,2.8c0-2,0-3.6,0-5.6c0-1.2,0-2.8,0-4
		c-0.4-16.4-16.8-26.8-32-20.8c-13.2,5.2-30.4,8.4-49.2,8.4s-35.6-3.2-49.2-8.4c-15.2-6-31.2,4.4-32,20.8c0,1.2,0,2.8,0,4
		c0,2,0,3.6,0,5.6c-3.6-2.8-7.6-4-10.8-2.8c-1.2-6-2-12.4-2-18.8c0-9.2,1.2-17.6,4-26c0.4-0.8,0.4-1.6,0.8-2.8c25.2-4.8,56-8,89.2-8
		s63.6,2.8,89.2,8c0.4,0.8,0.4,1.6,0.8,2.8C346.6,144.8,348.2,153.6,348.2,162.8z"/>
</g>
<path style="fill:#F9B54C;" d="M351.4,172c-14.4,14.4-54.4-8.4-97.2-6.4c-42.8-2-82.4,20.8-97.2,6.4c-8.4-9.6-2-30.4,13.2-48.8
	c16.4-20.4,47.2-40.8,83.6-40c36.8-0.8,67.2,19.6,83.6,40C353,141.2,359.4,162.4,351.4,172z"/>
<path style="fill:#FFD05B;" d="M353.4,148c0,0.4,0,1.2,0,1.6c-30-7.2-63.6-9.2-99.2-9.2s-69.2,2.4-99.2,9.2c0-0.4,0-1.2,0-1.6
	c0-60,44.4-107.2,99.2-107.2C309,41.2,353.4,88,353.4,148z"/>
<path style="fill:#F9B54C;" d="M303,130h-97.6c-4.4-23.2,0-60,15.6-82.8c10.4-4,21.6-6.4,33.2-6.4c11.6,0,22.8,2.4,33.2,6.4
	C303,70,307.4,106.8,303,130z"/>
<path style="fill:#FFD05B;" d="M231,44.4c-13.2,20.4-22.8,55.2-25.6,88H303c-2.8-32.8-12.4-67.6-25.6-88c-4-6-10.4-9.2-17.2-9.2
	h-11.6C241.4,35.2,235,38.8,231,44.4z"/>
<g>
</g>
<g>
</g>
<g>
</g>
<g>
</g>
<g>
</g>
<g>
</g>
<g>
</g>
<g>
</g>
<g>
</g>
<g>
</g>
<g>
</g>
<g>
</g>
<g>
</g>
<g>
</g>
<g>
</g>
</svg>
