<?xml version="1.0" encoding="iso-8859-1"?>
<!-- Generator: Adobe Illustrator 19.1.0, SVG Export Plug-In . SVG Version: 6.00 Build 0)  -->
<svg version="1.1" id="Capa_1" xmlns="http://www.w3.org/2000/svg" xmlns:xlink="http://www.w3.org/1999/xlink" x="0px" y="0px"
	 viewBox="0 0 406.48 406.48" style="enable-background:new 0 0 406.48 406.48;" xml:space="preserve">
<g>
	<path d="M398.23,342.51v34.95c0,16-13.02,29.02-29.03,29.02H37.27c-16,0-29.02-13.02-29.02-29.02v-34.95
		c0-16,13.02-29.02,29.02-29.02h71.47v-18H40.7c-16.66,0-30.2-13.55-30.2-30.21V30.2C10.5,13.55,24.04,0,40.7,0h325.08
		c16.65,0,30.2,13.55,30.2,30.2v235.08c0,16.66-13.55,30.21-30.2,30.21h-68.05v18h71.47C385.21,313.49,398.23,326.51,398.23,342.51z
		 M383.23,377.46v-34.95c0-7.73-6.29-14.02-14.03-14.02H37.27c-7.73,0-14.02,6.29-14.02,14.02v34.95c0,7.73,6.29,14.02,14.02,14.02
		H369.2C376.94,391.48,383.23,385.19,383.23,377.46z M380.98,265.28V30.2c0-8.38-6.82-15.2-15.2-15.2H40.7
		c-8.38,0-15.2,6.82-15.2,15.2v235.08c0,8.39,6.82,15.21,15.2,15.21h325.08C374.16,280.49,380.98,273.67,380.98,265.28z
		 M282.73,313.49v-18H123.74v18H282.73z"/>
	<path style="fill:#F48C6C;" d="M383.23,342.51v34.95c0,7.73-6.29,14.02-14.03,14.02H37.27c-7.73,0-14.02-6.29-14.02-14.02v-34.95
		c0-7.73,6.29-14.02,14.02-14.02H369.2C376.94,328.49,383.23,334.78,383.23,342.51z M362.98,359.98c0-4.14-3.36-7.5-7.5-7.5h-22.5
		c-4.14,0-7.5,3.36-7.5,7.5c0,4.15,3.36,7.5,7.5,7.5h22.5C359.62,367.48,362.98,364.13,362.98,359.98z M188.99,359.98
		c0-4.14-3.36-7.5-7.5-7.5h-129c-4.14,0-7.5,3.36-7.5,7.5c0,4.15,3.36,7.5,7.5,7.5h129C185.63,367.48,188.99,364.13,188.99,359.98z"
		/>
	<path style="fill:#F48C6C;" d="M380.98,30.2v235.08c0,8.39-6.82,15.21-15.2,15.21H40.7c-8.38,0-15.2-6.82-15.2-15.21V30.2
		c0-8.38,6.82-15.2,15.2-15.2h325.08C374.16,15,380.98,21.82,380.98,30.2z M365.98,257.99V37.5c0-4.14-3.36-7.5-7.5-7.5H48
		c-4.15,0-7.5,3.36-7.5,7.5v220.49c0,4.14,3.35,7.5,7.5,7.5h310.48C362.62,265.49,365.98,262.13,365.98,257.99z"/>
	<path d="M365.98,37.5v220.49c0,4.14-3.36,7.5-7.5,7.5H48c-4.15,0-7.5-3.36-7.5-7.5V37.5c0-4.14,3.35-7.5,7.5-7.5h310.48
		C362.62,30,365.98,33.36,365.98,37.5z M350.98,250.49V219.5h-59.61c-2.97,7.31-10.15,12.49-18.52,12.49c-11.03,0-20-8.97-20-20
		c0-11.02,8.97-20,20-20c8.37,0,15.55,5.19,18.53,12.51h59.6V78.49H237.59l-18.85,18.86c1.11,2.49,1.75,5.25,1.75,8.15
		c0,11.02-8.98,20-20,20c-11.03,0-20-8.98-20-20c0-11.03,8.97-20,20-20c2.63,0,5.13,0.52,7.44,1.45l21.26-21.26
		c1.4-1.41,3.31-2.2,5.3-2.2h116.49V45H55.5v65.5h48.52l18.86-18.86c-1.11-2.49-1.75-5.25-1.75-8.15c0-11.02,8.97-20,20-20
		s20,8.98,20,20c0,11.03-8.97,20-20,20c-2.63,0-5.14-0.52-7.44-1.45l-21.26,21.26c-1.4,1.41-3.31,2.2-5.3,2.2H55.5v14.75h206.09
		c2.97-7.32,10.15-12.51,18.53-12.51c11.02,0,20,8.98,20,20c0,11.03-8.98,20-20,20c-8.38,0-15.55-5.18-18.53-12.49H55.5V170h118.13
		c1.99,0,3.9,0.79,5.3,2.19l21.25,21.25c2.31-0.92,4.81-1.45,7.44-1.45c11.03,0,20,8.98,20,20c0,11.03-8.97,20-20,20
		c-11.02,0-20-8.97-20-20c0-2.9,0.64-5.65,1.75-8.14L170.52,185H55.5v16.69h62.1c2.97-7.32,10.15-12.5,18.52-12.5
		c11.03,0,20,8.97,20,20c0,11.02-8.97,20-20,20c-8.37,0-15.55-5.18-18.52-12.5H55.5v33.8H350.98z M285.12,147.74c0-2.75-2.25-5-5-5
		c-2.76,0-5,2.25-5,5c0,2.76,2.24,5,5,5C282.87,152.74,285.12,150.5,285.12,147.74z M277.85,211.99c0-2.75-2.24-5-5-5
		c-2.76,0-5,2.25-5,5c0,2.76,2.24,5,5,5C275.61,216.99,277.85,214.75,277.85,211.99z M212.62,211.99c0-2.75-2.24-5-5-5
		c-2.75,0-5,2.25-5,5c0,2.76,2.25,5,5,5C210.38,216.99,212.62,214.75,212.62,211.99z M205.49,105.5c0-2.76-2.25-5-5-5
		c-2.76,0-5,2.24-5,5c0,2.75,2.24,5,5,5C203.24,110.5,205.49,108.25,205.49,105.5z M146.13,83.49c0-2.75-2.24-5-5-5
		c-2.76,0-5,2.25-5,5c0,2.76,2.24,5,5,5C143.89,88.49,146.13,86.25,146.13,83.49z M141.12,209.19c0-2.76-2.24-5-5-5
		c-2.75,0-5,2.24-5,5c0,2.75,2.25,5,5,5C138.88,214.19,141.12,211.94,141.12,209.19z"/>
	<path d="M355.48,352.48c4.14,0,7.5,3.36,7.5,7.5c0,4.15-3.36,7.5-7.5,7.5h-22.5c-4.14,0-7.5-3.35-7.5-7.5c0-4.14,3.36-7.5,7.5-7.5
		H355.48z"/>
	<path style="fill:#3DD0F2;" d="M280.12,142.74c2.75,0,5,2.25,5,5c0,2.76-2.25,5-5,5c-2.76,0-5-2.24-5-5
		C275.12,144.99,277.36,142.74,280.12,142.74z"/>
	<path style="fill:#3DD0F2;" d="M272.85,206.99c2.76,0,5,2.25,5,5c0,2.76-2.24,5-5,5c-2.76,0-5-2.24-5-5
		C267.85,209.24,270.09,206.99,272.85,206.99z"/>
	<path style="fill:#3DD0F2;" d="M207.62,206.99c2.76,0,5,2.25,5,5c0,2.76-2.24,5-5,5c-2.75,0-5-2.24-5-5
		C202.62,209.24,204.87,206.99,207.62,206.99z"/>
	<path style="fill:#3DD0F2;" d="M200.49,100.5c2.75,0,5,2.24,5,5c0,2.75-2.25,5-5,5c-2.76,0-5-2.25-5-5
		C195.49,102.74,197.73,100.5,200.49,100.5z"/>
	<path d="M181.49,352.48c4.14,0,7.5,3.36,7.5,7.5c0,4.15-3.36,7.5-7.5,7.5h-129c-4.14,0-7.5-3.35-7.5-7.5c0-4.14,3.36-7.5,7.5-7.5
		H181.49z"/>
	<path style="fill:#3DD0F2;" d="M141.13,78.49c2.76,0,5,2.25,5,5c0,2.76-2.24,5-5,5c-2.76,0-5-2.24-5-5
		C136.13,80.74,138.37,78.49,141.13,78.49z"/>
	<path style="fill:#3DD0F2;" d="M136.12,204.19c2.76,0,5,2.24,5,5c0,2.75-2.24,5-5,5c-2.75,0-5-2.25-5-5
		C131.12,206.43,133.37,204.19,136.12,204.19z"/>
</g>
<g>
</g>
<g>
</g>
<g>
</g>
<g>
</g>
<g>
</g>
<g>
</g>
<g>
</g>
<g>
</g>
<g>
</g>
<g>
</g>
<g>
</g>
<g>
</g>
<g>
</g>
<g>
</g>
<g>
</g>
</svg>
