<?xml version="1.0" encoding="iso-8859-1"?>
<!-- Generator: Adobe Illustrator 19.0.0, SVG Export Plug-In . SVG Version: 6.00 Build 0)  -->
<svg version="1.1" id="Layer_1" xmlns="http://www.w3.org/2000/svg" xmlns:xlink="http://www.w3.org/1999/xlink" x="0px" y="0px"
	 viewBox="0 0 512 512" style="enable-background:new 0 0 512 512;" xml:space="preserve">
<circle style="fill:#263A7A;" cx="256" cy="256" r="256"/>
<path style="fill:#121149;" d="M116.815,326.68l181.774,181.774C419.699,488.17,512,382.873,512,256
	c0-10.23-0.619-20.313-1.786-30.23L394.002,109.778L116.815,326.68z"/>
<rect x="213.333" y="326.68" style="fill:#E2E2E2;" width="85.333" height="56.889"/>
<rect x="255.431" y="326.68" style="fill:#A8A8A8;" width="43.236" height="56.889"/>
<path style="fill:#FFFFFF;" d="M383.138,332.714H128.862c-8.33,0-15.084-6.753-15.084-15.084V120.242
	c0-8.33,6.753-15.084,15.084-15.084h254.276c8.33,0,15.084,6.753,15.084,15.084V317.63
	C398.222,325.961,391.468,332.714,383.138,332.714z"/>
<path style="fill:#E2E2E2;" d="M383.138,105.158H255.426v227.556h127.712c8.33,0,15.084-6.753,15.084-15.084V120.242
	C398.222,111.911,391.47,105.158,383.138,105.158z"/>
<rect x="125.845" y="118.627" style="fill:#FFC61B;" width="260.31" height="162.685"/>
<rect x="255.431" y="118.627" style="fill:#D19809;" width="130.729" height="162.685"/>
<rect x="142.222" y="133.603" style="fill:#FF5419;" width="227.556" height="56.889"/>
<rect x="255.431" y="133.603" style="fill:#940030;" width="114.347" height="56.889"/>
<rect x="284.444" y="204.283" style="fill:#FFEDB5;" width="85.333" height="56.889"/>
<path style="fill:#A8A8A8;" d="M316.768,398.222H195.232c-5.713,0-10.343-4.63-10.343-10.343l0,0c0-5.713,4.63-10.343,10.343-10.343
	h121.535c5.713,0,10.343,4.63,10.343,10.343l0,0C327.111,393.592,322.481,398.222,316.768,398.222z"/>
<path style="fill:#7F7F7F;" d="M316.768,377.535h-61.342v20.687h61.342c5.713,0,10.343-4.63,10.343-10.343
	S322.481,377.535,316.768,377.535z"/>
<g>
	<circle style="fill:#A8A8A8;" cx="256" cy="305.131" r="7.758"/>
	<path style="fill:#A8A8A8;" d="M256,297.374c-0.197,0-0.381,0.043-0.574,0.059v15.4c0.193,0.014,0.378,0.059,0.574,0.059
		c4.284,0,7.758-3.474,7.758-7.758S260.284,297.374,256,297.374z"/>
</g>
<g>
</g>
<g>
</g>
<g>
</g>
<g>
</g>
<g>
</g>
<g>
</g>
<g>
</g>
<g>
</g>
<g>
</g>
<g>
</g>
<g>
</g>
<g>
</g>
<g>
</g>
<g>
</g>
<g>
</g>
</svg>
