<?xml version="1.0" encoding="iso-8859-1"?>
<!-- Generator: Adobe Illustrator 19.0.0, SVG Export Plug-In . SVG Version: 6.00 Build 0)  -->
<svg version="1.1" id="Layer_1" xmlns="http://www.w3.org/2000/svg" xmlns:xlink="http://www.w3.org/1999/xlink" x="0px" y="0px"
	 viewBox="0 0 512 512" style="enable-background:new 0 0 512 512;" xml:space="preserve">
<g>
	<path style="fill:#F1B14F;" d="M256,512C114.617,512,0,397.383,0,256S114.617,0,256,0s256,114.617,256,256S397.383,512,256,512
		L256,512z"/>
	<path style="fill:#F0973E;" d="M319.592,290.925c-2.48,0-4.898,0.264-7.234,0.77c-2.615,0.568-5.208,1.462-7.725,2.687
		c-1.199,0.584-2.346,1.23-3.441,1.927c-4.154,2.666-7.699,6.206-10.37,10.376c-2.599,4.072-4.304,8.655-5.012,13.419
		c-0.196,1.338-0.315,2.697-0.351,4.082c-0.072,2.837,0.202,5.601,0.78,8.252c0.574,2.584,1.452,5.136,2.661,7.616
		c0.579,1.183,1.214,2.32,1.902,3.4c2.687,4.206,6.278,7.792,10.5,10.474c4.077,2.578,8.655,4.268,13.419,4.96
		c1.307,0.186,2.635,0.3,3.984,0.336l0.909,0.01c2.434,0,4.811-0.258,7.1-0.744c2.661-0.568,5.301-1.467,7.854-2.713
		c1.209-0.589,2.372-1.245,3.477-1.953c4.144-2.666,7.684-6.206,10.345-10.365c2.589-4.067,4.294-8.639,5.002-13.393
		c0.196-1.338,0.315-2.708,0.351-4.092c0.072-2.832-0.196-5.591-0.78-8.242c-0.574-2.584-1.452-5.141-2.666-7.627
		c-0.584-1.199-1.23-2.351-1.933-3.452c-2.702-4.206-6.299-7.792-10.536-10.469c-4.01-2.527-8.51-4.196-13.192-4.898
		c-1.359-0.202-2.744-0.32-4.149-0.362H319.592L319.592,290.925z M112.426,200.681H92.223l0,0l31.571,30.269
		c-1.483-2.382-2.857-4.867-4.113-7.446C116.069,216.099,113.677,208.416,112.426,200.681L112.426,200.681z M193.126,153.51
		c-5.022,0-10.128,1.116-14.949,3.467c-12.122,5.911-19.175,18.049-19.196,30.682c-0.005,5.038,1.106,10.159,3.462,14.995
		c5.922,12.138,18.075,19.196,30.729,19.196c5.022,0,10.128-1.116,14.949-3.462c12.122-5.911,19.175-18.049,19.196-30.682
		c0.005-5.038-1.106-10.159-3.462-14.995C217.934,160.563,205.776,153.505,193.126,153.51L193.126,153.51z M273.713,125.509
		l-14.292,14.292c2.697,3.741,5.11,7.761,7.198,12.045c3.612,7.404,6.004,15.093,7.255,22.823h6.242h13.956v26.011h-20.214
		c-2.031,12.541-6.96,24.513-14.437,34.873l7.968,7.968l6.319,6.319l-18.395,18.395l-14.292-14.292
		c-3.741,2.697-7.761,5.11-12.045,7.198c-7.41,3.612-15.088,6.004-22.823,7.255v8.841v11.357h-26.011v-20.219
		c-12.541-2.031-24.508-6.96-34.873-14.437l-0.656,0.656l-13.631,13.631l-18.395-18.395l0,0l113.15,113.15l-6.294-19.966
		l19.268-6.077c-1.876-12.768-0.656-25.639,3.312-37.596l-17.94-9.337l12.014-23.071l17.925,9.332
		c7.379-9.931,17.129-18.333,28.92-24.249l-6.082-19.289l24.807-7.823l6.077,19.268c3.937-0.579,7.885-0.863,11.812-0.863
		c8.81,0,17.517,1.431,25.789,4.175l9.337-17.94l23.071,12.014l-9.337,17.935c9.931,7.379,18.333,17.129,24.244,28.92l19.289-6.082
		l7.823,24.807l-18.323,5.777l0,0l-0.946,0.3c1.876,12.768,0.656,25.639-3.312,37.596l17.94,9.337l-12.014,23.071l-17.925-9.332
		c-7.379,9.931-17.129,18.333-28.92,24.249l6.082,19.289l-24.807,7.823l-2.708-8.593l0,0l-3.364-10.675
		c-3.937,0.579-7.885,0.863-11.812,0.863c-8.81,0-17.517-1.431-25.789-4.175l-9.337,17.94l-23.071-12.014l6.469-12.427l0,0
		l2.863-5.498c-9.931-7.379-18.333-17.129-24.249-28.92l-0.904,0.284l-18.385,5.798l36.563,36.237l-2.356,4.526l86.735,86.219
		c67.576-26.104,121.272-80.023,147.067-147.749L273.713,125.509L273.713,125.509z M112.592,125.509L112.592,125.509l6.159,6.159
		L112.592,125.509L112.592,125.509z M141.827,117.96l3.446,3.446l0,0L141.827,117.96L141.827,117.96z M158.801,113.501
		c-0.496,0.227-0.987,0.465-1.478,0.703l-0.45,0.222l0.45-0.222C157.809,113.966,158.305,113.734,158.801,113.501L158.801,113.501z
		 M206.158,86.751v20.219c10.67,1.731,20.932,5.56,30.14,11.264L206.158,86.751L206.158,86.751z"/>
	<path style="fill:#2B8199;" d="M231.322,174.669c1.39,4.087,2.181,8.448,2.181,13.006s-0.791,8.918-2.181,13.006h62.75v-26.011
		L231.322,174.669L231.322,174.669z M180.147,149.5c4.087-1.39,8.448-2.181,13.006-2.181s8.918,0.791,13.006,2.181v-62.75h-26.011
		L180.147,149.5L180.147,149.5z M229.332,169.885l44.38-44.38l-18.395-18.395l-44.38,44.38
		C218.921,155.427,225.4,161.902,229.332,169.885L229.332,169.885z M152.797,187.675c0-4.557,0.791-8.918,2.181-13.006h-62.75
		v26.011h62.75C153.582,196.594,152.797,192.233,152.797,187.675L152.797,187.675z M175.362,151.495l-44.38-44.38l-18.395,18.395
		l44.38,44.38C160.899,161.902,167.379,155.427,175.362,151.495L175.362,151.495z M156.967,205.466l-44.38,44.38l18.395,18.395
		l44.38-44.38C167.379,219.923,160.899,213.449,156.967,205.466L156.967,205.466z M210.938,223.855l44.38,44.38l18.395-18.395
		l-44.38-44.38C225.4,213.449,218.921,219.923,210.938,223.855L210.938,223.855z M180.147,225.85v62.75h26.011v-62.75
		c-4.087,1.39-8.448,2.186-13.006,2.186C188.595,228.03,184.229,227.24,180.147,225.85L180.147,225.85z"/>
	<polygon style="fill:#A27E36;" points="145.274,253.949 144.612,254.605 144.612,254.605 145.274,253.949 	"/>
	<path style="fill:#1D6B86;" d="M139.988,249.799c1.483,1.674,3.023,3.276,4.625,4.811l0.656-0.661
		C143.46,252.641,141.698,251.257,139.988,249.799L139.988,249.799z"/>
	<path style="fill:#1D6B86;" d="M280.115,174.669h-6.242c1.411,8.717,1.364,17.491-0.016,26.011h8.82
		C283.215,192.057,282.42,183.288,280.115,174.669L280.115,174.669z"/>
	<path style="fill:#1D6B86;" d="M259.421,235.554c-5.022,6.96-11.187,13.197-18.395,18.39l7.921,7.921
		c7.208-5.193,13.424-11.378,18.447-18.343L259.421,235.554L259.421,235.554z"/>
	<path style="fill:#1D6B86;" d="M180.147,268.386v6.206c6.872,1.829,13.982,2.801,21.165,2.801c1.612,0,3.229-0.047,4.847-0.15
		v-8.841c-4.309,0.698-8.645,1.039-12.944,1.039C188.817,269.435,184.446,269.078,180.147,268.386L180.147,268.386z"/>
	<path style="fill:#1D6B86;" d="M255.013,134.216c1.54,1.783,3.012,3.643,4.408,5.581l0.708-0.708
		C258.491,137.383,256.78,135.756,255.013,134.216L255.013,134.216z"/>
	<path style="fill:#3194B0;" d="M157.318,114.204c-40.577,19.79-57.427,68.723-37.637,109.3s68.723,57.427,109.3,37.637
		s57.427-68.728,37.637-109.3C246.834,111.269,197.896,94.414,157.318,114.204L157.318,114.204z M208.127,218.378
		c-16.959,8.267-37.405,1.23-45.677-15.729c-8.267-16.959-1.23-37.405,15.729-45.677s37.41-1.23,45.677,15.729
		C232.123,189.659,225.08,210.111,208.127,218.378L208.127,218.378z"/>
	<path style="fill:#2B8199;" d="M171.223,142.716c-24.833,12.112-35.142,42.055-23.035,66.888
		c12.112,24.833,42.055,35.142,66.888,23.035c24.833-12.112,35.142-42.055,23.035-66.888
		C226,140.918,196.056,130.604,171.223,142.716L171.223,142.716z M208.127,218.378c-16.959,8.267-37.405,1.23-45.677-15.729
		c-8.267-16.959-1.23-37.405,15.729-45.677s37.41-1.23,45.677,15.729C232.123,189.659,225.08,210.111,208.127,218.378
		L208.127,218.378z"/>
	<path style="fill:#CEEAF2;" d="M131.989,176.788c-1.395,0.677-3.023,0.878-4.635,0.45c-3.56-0.951-5.679-4.604-4.728-8.159
		c5.472-20.539,19.563-37.663,38.66-46.974c3.312-1.612,7.301-0.238,8.918,3.069c1.612,3.307,0.243,7.301-3.069,8.918
		c-15.615,7.616-27.143,21.619-31.618,38.423C134.996,174.452,133.668,175.966,131.989,176.788z"/>
	<path style="fill:#217794;" d="M143.202,190.615c0.45,7.746,2.671,15.016,6.252,21.413c-0.439-0.796-0.863-1.602-1.266-2.429
		C145.201,203.471,143.574,197.028,143.202,190.615L143.202,190.615z M155.324,154.926c-7.606,8.779-12.21,20.224-12.21,32.749
		l0.01,0.946C142.902,176.313,147.248,164.258,155.324,154.926L155.324,154.926z M190.946,137.688
		c-11.833,0.512-22.596,5.136-30.91,12.479c3.302-2.909,7.043-5.431,11.187-7.451C177.589,139.611,184.291,137.978,190.946,137.688
		L190.946,137.688z M191.003,137.688h-0.036H191.003L191.003,137.688z M193.152,137.642l-1.059,0.01l1.023-0.01
		c8.262,0,16.38,2.057,23.609,5.911C209.703,139.781,201.678,137.642,193.152,137.642L193.152,137.642z"/>
	<path style="fill:#1D6781;" d="M193.116,137.642l-1.023,0.01l-1.09,0.036h-0.036h-0.021c-6.655,0.289-13.352,1.922-19.718,5.028
		c-4.149,2.02-7.885,4.542-11.187,7.451c-1.674,1.478-3.25,3.069-4.712,4.759c-8.076,9.332-12.422,21.387-12.2,33.695
		c0.01,0.672,0.036,1.333,0.077,2c0.377,6.412,2,12.856,4.986,18.984c0.403,0.827,0.827,1.633,1.266,2.429
		c3.204,5.72,7.497,10.742,12.597,14.799c-6.795-8.541-10.882-19.335-10.882-31.096c0-27.634,22.399-50.033,50.033-50.033
		c11.76,0,22.555,4.087,31.096,10.882c-4.242-5.332-9.539-9.781-15.584-13.026C209.496,139.698,201.373,137.642,193.116,137.642
		L193.116,137.642z"/>
	<path style="fill:#CEEAF2;" d="M359.477,331.177c-0.651,4.268-1.964,8.505-4.072,12.546s-4.821,7.549-7.942,10.531l55.66,28.977
		l12.014-23.071L359.477,331.177L359.477,331.177z M325.699,285.22c4.268,0.651,8.5,1.964,12.546,4.072
		c4.046,2.108,7.549,4.821,10.531,7.942l28.977-55.66l-23.071-12.014L325.699,285.22L325.699,285.22z M359.916,326.015l59.856-18.87
		l-7.823-24.807l-59.856,18.87C357.358,308.379,360.118,317.117,359.916,326.015L359.916,326.015z M283.815,306.452
		c2.103-4.041,4.821-7.549,7.942-10.531l-55.66-28.977l-12.014,23.071l55.66,28.977C280.394,314.73,281.712,310.492,283.815,306.452
		L283.815,306.452z M320.537,284.776l-18.87-59.856l-24.807,7.823l18.87,59.856C302.902,287.333,311.64,284.579,320.537,284.776
		L320.537,284.776z M279.304,324.154l-59.856,18.87l7.823,24.807l59.856-18.87C281.856,341.79,279.102,333.052,279.304,324.154
		L279.304,324.154z M318.682,365.393l18.876,59.856l24.807-7.823L343.49,357.57C336.313,362.835,327.58,365.59,318.682,365.393
		L318.682,365.393z M290.444,352.94l-28.977,55.66l23.071,12.014l28.977-55.66c-4.268-0.651-8.505-1.964-12.546-4.072
		C296.934,358.779,293.425,356.061,290.444,352.94L290.444,352.94z"/>
	<polygon style="fill:#2E582B;" points="246.555,361.756 245.65,362.04 246.555,361.756 	"/>
	<path style="fill:#2888A7;" d="M243.744,355.524c0.548,2.206,1.183,4.382,1.907,6.516l0.904-0.284l-0.413-0.842
		C245.268,359.136,244.472,357.338,243.744,355.524L243.744,355.524z"/>
	<path style="fill:#A6D7E6;" d="M397.197,350.812c-2.733,8.242-6.769,16.044-11.998,23.082l7.813,4.067
		c4.459-7.399,7.802-15.548,9.74-24.254L397.197,350.812L397.197,350.812z"/>
	<polygon style="fill:#C28B3B;" points="331.481,405.981 331.481,405.981 334.845,416.656 	"/>
	<path style="fill:#A6D7E6;" d="M356.278,398.137l-0.842,0.413c-7.771,3.788-15.842,6.237-23.96,7.43l3.364,10.675
		c8.789-1.281,17.16-3.896,24.828-7.756L356.278,398.137L356.278,398.137z"/>
	<path style="fill:#A6D7E6;" d="M270.804,390.676l-2.863,5.498c6.428,5.875,13.77,10.768,21.847,14.365l4.092-7.864
		C285.644,399.941,277.836,395.905,270.804,390.676L270.804,390.676z"/>
	<path style="fill:#A6D7E6;" d="M399.16,306.214c0.553,2.325,1.002,4.661,1.343,7.001l0.946-0.3
		C400.788,310.637,400.023,308.405,399.16,306.214L399.16,306.214z"/>
	<path style="fill:#CEEAF2;" d="M283.778,251.613c-40.577,19.79-57.427,68.723-37.637,109.3s68.728,57.427,109.3,37.637
		c40.577-19.79,57.427-68.728,37.637-109.3S324.356,231.823,283.778,251.613L283.778,251.613z M334.582,355.788
		c-16.959,8.267-37.41,1.23-45.677-15.729c-8.267-16.959-1.23-37.41,15.729-45.677s37.41-1.23,45.677,15.729
		C358.583,327.069,351.54,347.52,334.582,355.788L334.582,355.788z"/>
	<path style="fill:#C28B3B;" d="M326.728,358.505c-2.294,0.486-4.671,0.744-7.1,0.744l-0.909-0.01
		c-1.349-0.036-2.677-0.15-3.984-0.336c1.617,0.233,3.255,0.357,4.904,0.357C321.995,359.255,324.371,359.007,326.728,358.505
		L326.728,358.505z M348.404,343.469c-2.661,4.16-6.201,7.704-10.345,10.365C342.322,351.106,345.81,347.546,348.404,343.469
		L348.404,343.469z M290.811,343.459c2.754,4.33,6.366,7.859,10.5,10.474C297.089,351.251,293.498,347.665,290.811,343.459
		L290.811,343.459z M285.809,320.103c-0.599,4.046-0.481,8.226,0.434,12.334c-0.584-2.651-0.858-5.415-0.78-8.252
		C285.499,322.806,285.613,321.442,285.809,320.103L285.809,320.103z M352.977,317.737c0.579,2.651,0.853,5.41,0.78,8.242
		c-0.036,1.39-0.155,2.754-0.351,4.092C354.01,326.03,353.886,321.85,352.977,317.737L352.977,317.737z M301.192,296.309
		c-4.273,2.728-7.766,6.294-10.37,10.376C293.493,302.52,297.037,298.975,301.192,296.309L301.192,296.309z M337.842,296.19
		c4.237,2.677,7.839,6.263,10.536,10.469C345.613,302.334,341.986,298.804,337.842,296.19L337.842,296.19z M319.587,290.919
		c-2.403,0-4.826,0.253-7.224,0.78c2.336-0.506,4.754-0.77,7.234-0.77l0.915,0.01c1.405,0.036,2.79,0.16,4.149,0.362
		C322.981,291.043,321.287,290.919,319.587,290.919L319.587,290.919z"/>
	<path style="fill:#A6D7E6;" d="M312.358,291.694c2.398-0.522,4.821-0.78,7.224-0.78c1.705,0,3.395,0.129,5.069,0.377
		c4.8,0.713,9.27,2.418,13.192,4.898c4.144,2.609,7.771,6.139,10.536,10.469c2.144,3.343,3.725,7.084,4.599,11.078
		c0.909,4.113,1.028,8.293,0.429,12.339c-0.713,4.883-2.46,9.425-5.002,13.393c-2.594,4.077-6.082,7.637-10.345,10.365
		c-3.415,2.196-7.244,3.798-11.332,4.666c-2.356,0.506-4.733,0.749-7.094,0.749c-1.648,0-3.286-0.119-4.904-0.357
		c-4.893-0.698-9.44-2.434-13.419-4.96c-4.134-2.615-7.746-6.149-10.5-10.474c-2.129-3.328-3.695-7.048-4.568-11.022
		c-0.909-4.113-1.033-8.293-0.434-12.334c0.713-4.893,2.465-9.445,5.012-13.419c2.604-4.077,6.097-7.647,10.37-10.376
		C304.561,294.149,308.333,292.568,312.358,291.694L312.358,291.694z M338.286,278.663c8.087,3.271,15.129,8.593,20.477,15.321
		c-8.541-6.795-19.335-10.882-31.096-10.882c-27.634,0-50.033,22.399-50.033,50.033c0,11.76,4.087,22.555,10.882,31.096
		c-6.547-5.203-11.766-12.008-15.052-19.821c7.379,17.584,24.539,30.14,44.84,30.672l1.333,0.015
		c27.019,0,49.269-21.542,49.982-48.71C370.178,304.917,357.115,286.243,338.286,278.663L338.286,278.663z"/>
	<path style="fill:#FFFFFF;" d="M258.449,314.197c-1.395,0.677-3.023,0.878-4.635,0.45c-3.56-0.951-5.679-4.604-4.728-8.159
		c5.472-20.539,19.563-37.663,38.66-46.974c3.312-1.612,7.301-0.238,8.918,3.069c1.612,3.307,0.243,7.301-3.069,8.918
		c-15.615,7.616-27.143,21.619-31.618,38.423C261.451,311.862,260.129,313.376,258.449,314.197z"/>
	<path style="fill:#A6D7E6;" d="M319.607,275.051c-27.634,0-50.033,22.399-50.033,50.033c0,6.857,1.385,13.388,3.886,19.335
		c-2.661-6.34-4.051-13.331-3.86-20.648c0.713-27.174,22.963-48.71,49.982-48.71l1.338,0.016c6.139,0.16,11.988,1.421,17.367,3.586
		C332.52,276.333,326.216,275.051,319.607,275.051L319.607,275.051z"/>
	<path style="fill:#86C5DA;" d="M319.587,275.062c-27.019,0-49.269,21.542-49.982,48.711c-0.191,7.317,1.199,14.308,3.86,20.648
		c3.286,7.813,8.505,14.613,15.052,19.821c-6.795-8.541-10.882-19.335-10.882-31.096c0-27.634,22.4-50.033,50.033-50.033
		c11.76,0,22.555,4.087,31.096,10.882c-5.353-6.728-12.391-12.055-20.477-15.321c-5.379-2.165-11.228-3.426-17.367-3.586
		L319.587,275.062L319.587,275.062z"/>
</g>
<g>
</g>
<g>
</g>
<g>
</g>
<g>
</g>
<g>
</g>
<g>
</g>
<g>
</g>
<g>
</g>
<g>
</g>
<g>
</g>
<g>
</g>
<g>
</g>
<g>
</g>
<g>
</g>
<g>
</g>
</svg>
