<?xml version="1.0" encoding="iso-8859-1"?>
<!-- Generator: Adobe Illustrator 19.0.0, SVG Export Plug-In . SVG Version: 6.00 Build 0)  -->
<svg version="1.1" id="Layer_1" xmlns="http://www.w3.org/2000/svg" xmlns:xlink="http://www.w3.org/1999/xlink" x="0px" y="0px"
	 viewBox="0 0 511.999 511.999" style="enable-background:new 0 0 511.999 511.999;" xml:space="preserve">
<circle style="fill:#59D8FF;" cx="256" cy="307.306" r="196.676"/>
<path style="fill:#00C3F0;" d="M187.59,264.55c0-62.268,28.971-117.739,74.132-153.776c-1.906-0.055-3.804-0.144-5.723-0.144
	c-108.622,0-196.676,88.054-196.676,196.676c0,108.621,88.054,196.676,196.676,196.676c46.353,0,88.927-16.075,122.544-42.9
	C272.576,458.047,187.59,371.253,187.59,264.55z"/>
<path style="fill:#5B5D6E;" d="M354.338,42.22H157.661l-9.955,79.641c-1.631,13.05,6.872,25.222,19.687,28.178l77.069,17.785
	c7.592,1.752,15.482,1.752,23.074,0l77.069-17.785c12.815-2.958,21.318-15.128,19.687-28.178L354.338,42.22z"/>
<path style="fill:#464655;" d="M361.559,99.989l-7.221-57.768H157.661l-9.955,79.641c-1.631,13.05,6.872,25.222,19.687,28.178
	l77.07,17.785c3.796,0.875,7.666,1.314,11.537,1.314v-49.958L361.559,99.989z"/>
<path style="fill:#707487;" d="M256,8.016L55.47,45.151c-6.234,1.154-6.234,10.087,0,11.242L256,93.527l200.53-37.135
	c6.234-1.154,6.234-10.087,0-11.242L256,8.016z"/>
<g>
	<circle style="fill:#5B5D6E;" cx="418.493" cy="153.385" r="17.102"/>
	<path style="fill:#5B5D6E;" d="M418.494,170.488L418.494,170.488c-9.446,0-17.102,7.656-17.102,17.102v42.756h34.205V187.59
		C435.596,178.145,427.939,170.488,418.494,170.488z"/>
</g>
<path d="M457.99,64.275c6.613-1.225,11.232-6.778,11.232-13.503s-4.619-12.278-11.232-13.503L257.46,0.134
	c-0.965-0.179-1.954-0.179-2.919,0L54.01,37.268c-6.613,1.225-11.232,6.778-11.232,13.503S47.396,63.05,54.01,64.275l90.716,16.8
	l-4.975,39.793c-0.728,5.818,0.068,11.486,2.089,16.594c-56.783,38.19-90.533,101.284-90.533,169.845
	c0,112.869,91.825,204.693,204.693,204.693s204.693-91.824,204.693-204.693c0-28.526-5.763-56.075-17.102-81.951V187.59
	c0-6.603-2.564-12.614-6.745-17.102c4.18-4.488,6.745-10.5,6.745-17.102c0-11.047-7.172-20.445-17.102-23.8V70.108L457.99,64.275z
	 M256,16.169l186.855,34.602L256,85.375L69.145,50.772L256,16.169z M409.746,416.529c-15.993-4.935-32.181-9.088-48.522-12.453
	c8.399-27.093,13.168-57.307,13.861-88.753h69.393C442.897,352.926,430.27,387.722,409.746,416.529z M67.522,315.323h69.393
	c0.694,31.447,5.462,61.66,13.861,88.752c-16.342,3.364-32.531,7.518-48.522,12.453C81.729,387.722,69.103,352.926,67.522,315.323z
	 M102.14,198.049c16.036,4.952,32.268,9.119,48.654,12.492c-8.37,27.049-13.174,57.319-13.875,88.749h-69.39
	C69.075,262.304,81.283,227.336,102.14,198.049z M242.66,175.638c1.756,0.405,3.535,0.707,5.323,0.948v28.565
	c-25.524-0.402-50.89-2.729-75.936-6.942c4.995-12.72,10.901-24.415,17.636-34.797L242.66,175.638z M322.316,163.412
	c6.736,10.383,12.644,22.077,17.639,34.798c-25.054,4.213-50.43,6.544-75.938,6.946v-28.57c1.788-0.243,3.567-0.543,5.323-0.948
	L322.316,163.412z M264.016,221.189c27.337-0.418,54.527-2.983,81.353-7.642c8.223,25.921,12.967,55.196,13.674,85.742h-95.028
	V221.189z M247.983,221.183v78.106h-95.028c0.709-30.537,5.45-59.808,13.671-85.726
	C193.444,218.222,220.628,220.766,247.983,221.183z M152.951,315.323h95.032v78.106c-27.359,0.418-54.55,2.961-81.373,7.621
	C158.352,375.07,153.652,345.855,152.951,315.323z M247.983,409.462v85.919c-23.723-3.412-46.063-21.904-63.61-52.949
	c-4.578-8.099-8.688-16.813-12.316-26.031C197.1,412.19,222.463,409.864,247.983,409.462z M264.016,495.381v-85.919
	c25.52,0.402,50.884,2.729,75.925,6.94c-3.628,9.218-7.738,17.932-12.316,26.031C310.079,473.477,287.739,491.969,264.016,495.381z
	 M264.016,393.429v-78.106h95.032c-0.701,30.532-5.401,59.748-13.66,85.728C318.566,396.39,291.377,393.847,264.016,393.429z
	 M375.081,299.289c-0.701-31.431-5.504-61.699-13.873-88.745c10.787-2.22,21.507-4.776,32.145-7.68v27.481
	c0,4.427,3.589,8.017,8.017,8.017h30.287c7.663,19.45,11.951,39.874,12.821,60.927H375.081z M427.557,187.59v34.739h-18.171V187.59
	c0-5.01,4.076-9.086,9.086-9.086S427.557,182.58,427.557,187.59z M393.392,186.205c-12.368,3.494-24.851,6.521-37.431,9.057
	c-4.868-12.881-10.602-24.851-17.13-35.662l7.577-1.749c5.523-1.274,10.423-3.841,14.448-7.31
	c12.374,8.291,23.724,18.011,33.836,28.971C393.97,181.632,393.52,183.876,393.392,186.205z M356.339,122.857
	c1.126,9.003-4.693,17.332-13.535,19.373l-77.069,17.785c-0.569,0.131-1.144,0.237-1.718,0.344v-60.164l87.465-16.197
	L356.339,122.857z M247.983,100.195v60.163c-0.574-0.108-1.149-0.213-1.718-0.344l-77.069-17.785
	c-8.842-2.041-14.66-10.369-13.535-19.373l4.857-38.857L247.983,100.195z M151.136,150.535c4.027,3.473,8.928,6.041,14.455,7.317
	l7.577,1.749c-6.526,10.807-12.258,22.773-17.125,35.65c-14.567-2.936-29.013-6.504-43.301-10.728
	C123.783,171.689,136.647,160.234,151.136,150.535z M112.854,430.057c14.243-4.206,28.644-7.76,43.165-10.689
	c4.167,11,8.977,21.367,14.396,30.954c8.328,14.734,17.744,27.008,27.958,36.632C164.81,476.162,135.317,456.215,112.854,430.057z
	 M313.627,486.953c10.214-9.624,19.63-21.898,27.958-36.632c5.419-9.587,10.229-19.954,14.396-30.954
	c14.52,2.928,28.921,6.485,43.163,10.69C376.68,456.216,347.188,476.162,313.627,486.953z M418.471,162.471
	c-5.01,0-9.086-4.076-9.086-9.086s4.076-9.086,9.086-9.086s9.086,4.076,9.086,9.086S423.481,162.471,418.471,162.471z
	 M410.455,129.585c-9.93,3.354-17.102,12.752-17.102,23.8c0,0.79,0.042,1.57,0.113,2.341c-7.317-6.637-15.108-12.733-23.31-18.256
	c2.023-5.11,2.821-10.782,2.093-16.604l-4.975-39.794l43.181-7.995V129.585z"/>
<g>
</g>
<g>
</g>
<g>
</g>
<g>
</g>
<g>
</g>
<g>
</g>
<g>
</g>
<g>
</g>
<g>
</g>
<g>
</g>
<g>
</g>
<g>
</g>
<g>
</g>
<g>
</g>
<g>
</g>
</svg>
