<?xml version="1.0" encoding="iso-8859-1"?>
<!-- Generator: Adobe Illustrator 19.0.0, SVG Export Plug-In . SVG Version: 6.00 Build 0)  -->
<svg version="1.1" id="Layer_1" xmlns="http://www.w3.org/2000/svg" xmlns:xlink="http://www.w3.org/1999/xlink" x="0px" y="0px"
	 viewBox="0 0 512 512" style="enable-background:new 0 0 512 512;" xml:space="preserve">
<circle style="fill:#273B7A;" cx="256" cy="256" r="256"/>
<path style="fill:#121149;" d="M406.571,154.102l-86.373-86.373L256,110.132v85.08h129.514l-54.746,94.151l-229.319,85.721
	L237.209,511.31c6.206,0.45,12.469,0.69,18.791,0.69c141.384,0,256-114.616,256-256c0-1.293-0.029-2.579-0.048-3.867l-100.88-100.88
	L406.571,154.102z"/>
<rect x="113.778" y="170.667" style="fill:#FEE187;" width="284.444" height="199.111"/>
<rect x="256" y="170.667" style="fill:#FFC61B;" width="142.222" height="199.111"/>
<rect x="227.556" y="284.444" style="fill:#D48B07;" width="56.889" height="85.333"/>
<rect x="256" y="284.444" style="fill:#FF5419;" width="28.444" height="85.333"/>
<g>
	<rect x="142.222" y="199.111" style="fill:#D48B07;" width="56.889" height="28.444"/>
	<rect x="142.222" y="256" style="fill:#D48B07;" width="56.889" height="28.444"/>
</g>
<rect x="312.889" y="199.111" style="fill:#FF5419;" width="56.889" height="28.444"/>
<rect x="227.556" y="199.111" style="fill:#D48B07;" width="56.889" height="28.444"/>
<g>
	<rect x="256" y="199.111" style="fill:#FF5419;" width="28.444" height="28.444"/>
	<rect x="312.889" y="256" style="fill:#FF5419;" width="56.889" height="28.444"/>
</g>
<path style="fill:#FFC61B;" d="M405.478,377.104H106.524c-4.086,0-7.399-3.312-7.399-7.399v-13.648c0-4.086,3.312-7.399,7.399-7.399
	h298.955c4.086,0,7.399,3.312,7.399,7.399v13.648C412.875,373.793,409.564,377.104,405.478,377.104z"/>
<path style="fill:#EAA22F;" d="M405.476,348.66H256v28.444h149.476c4.086,0,7.399-3.312,7.399-7.399v-13.648
	C412.875,351.972,409.564,348.66,405.476,348.66z"/>
<path style="fill:#FF5419;" d="M316.69,110.132h-55.741c-2.734,0-4.951-2.217-4.951-4.951V71.321c0-2.734,2.217-4.951,4.951-4.951
	h55.741c2.734,0,4.951,2.217,4.951,4.951v33.859C321.641,107.915,319.424,110.132,316.69,110.132z"/>
<path style="fill:#FEE187;" d="M258.874,166.145c1.5,0,2.86,0.217,4.087,0.6V66.37c0-2.381-1.929-4.31-4.31-4.31
	s-4.31,1.929-4.31,4.31v100.531C255.685,166.422,257.188,166.145,258.874,166.145z"/>
<path style="fill:#FFC61B;" d="M405.478,177.131H106.524c-4.086,0-7.399-3.312-7.399-7.399v-13.648c0-4.086,3.312-7.399,7.399-7.399
	h298.955c4.086,0,7.399,3.312,7.399,7.399v13.648C412.875,173.82,409.564,177.131,405.478,177.131z"/>
<path style="fill:#EAA22F;" d="M405.476,148.687H256v28.444h149.476c4.086,0,7.399-3.312,7.399-7.399v-13.648
	C412.875,151.998,409.564,148.687,405.476,148.687z"/>
<g>
</g>
<g>
</g>
<g>
</g>
<g>
</g>
<g>
</g>
<g>
</g>
<g>
</g>
<g>
</g>
<g>
</g>
<g>
</g>
<g>
</g>
<g>
</g>
<g>
</g>
<g>
</g>
<g>
</g>
</svg>
