<?xml version="1.0" encoding="iso-8859-1"?>
<!-- Generator: Adobe Illustrator 19.0.0, SVG Export Plug-In . SVG Version: 6.00 Build 0)  -->
<svg version="1.1" id="Layer_1" xmlns="http://www.w3.org/2000/svg" xmlns:xlink="http://www.w3.org/1999/xlink" x="0px" y="0px"
	 viewBox="0 0 480 480" style="enable-background:new 0 0 480 480;" xml:space="preserve">
<path style="fill:#2FB4C2;" d="M244.4,184c-8.8,0-16,7.2-16,16s7.2,16,16,16c8.8,0,16-7.2,16-16S253.2,184,244.4,184z M236.4,332.8
	v-79.2c0-3.2-2.4-6.4-5.6-7.2c-16-6.4-26.4-21.6-26.4-38.4c0-22.4,17.6-40,40-40s40,17.6,40,40c0,16.8-10.4,32-26.4,37.6
	c-3.2,0.8-5.6,4-5.6,7.2v24.8l-7.2,14.4c-0.8,2.4-0.8,4.8-0.8,6.4l7.2,20.8l-9.6,19.2L236.4,332.8z"/>
<path style="fill:#E0CBB5;" d="M348.4,131.2v209.6l-104,55.2l-104-55.2V131.2l104-18.4L348.4,131.2z M300.4,208
	c0-31.2-24.8-56-56-56s-56,24.8-56,56c0,21.6,12.8,41.6,32,50.4V336c0,2.4,0.8,4,2.4,5.6l16,16c1.6,1.6,3.2,2.4,5.6,2.4
	c0,0,0.8,0,1.6,0c2.4-0.8,4.8-2.4,5.6-4l16-32c0.8-1.6,0.8-4,0.8-6.4l-7.2-20.8l6.4-12.8c0.8-1.6,0.8-2.4,0.8-4v-21.6
	C287.6,249.6,300.4,229.6,300.4,208z"/>
<path style="fill:#FFF8EF;" d="M324.4,131.2l-80-18.4l-80,18.4v209.6l80,55.2l80-55.2V131.2z M268.4,258.4V280c0,1.6,0,2.4-0.8,4
	l-6.4,12.8l7.2,20.8c0.8,2.4,0.8,4-0.8,6.4l-16,32c-0.8,2.4-3.2,4-5.6,4c0,0-0.8,0-1.6,0c-2.4,0-4-0.8-5.6-2.4l-16-16
	c-1.6-1.6-2.4-3.2-2.4-5.6v-77.6c-19.2-9.6-32-28.8-32-50.4c0-31.2,24.8-56,56-56s56,24.8,56,56
	C300.4,229.6,287.6,249.6,268.4,258.4z"/>
<path style="fill:#FF7D00;" d="M116.4,355.2V110.4l128-22.4l128,22.4v244.8l-128,68L116.4,355.2z M240.4,412c0.8,0.8,2.4,0.8,4,0.8
	s2.4,0,4-0.8l112-59.2c2.4-1.6,4-4,4-7.2V124c0-4-2.4-7.2-6.4-8L246,96c-0.8,0-1.6,0-2.4,0l-112,20c-4,0.8-6.4,4-6.4,8v221.6
	c0,3.2,1.6,5.6,4,7.2L240.4,412z"/>
<g>
	<circle style="fill:#42210B;" cx="244.4" cy="200" r="16"/>
	<path style="fill:#42210B;" d="M188.4,208c0-31.2,24.8-56,56-56s56,24.8,56,56c0,21.6-12.8,41.6-32,50.4V280c0,1.6,0,2.4-0.8,4
		l-6.4,12.8l7.2,20.8c0.8,2.4,0.8,4-0.8,6.4l-16,32c-0.8,2.4-3.2,4-5.6,4c0,0-0.8,0-1.6,0c-2.4,0-4-0.8-5.6-2.4l-16-16
		c-1.6-1.6-2.4-3.2-2.4-5.6v-77.6C201.2,249.6,188.4,229.6,188.4,208z M204.4,208c0,16.8,10.4,32,26.4,37.6c3.2,0.8,5.6,4,5.6,7.2
		V332l5.6,5.6l9.6-19.2l-7.2-20c-0.8-2.4-0.8-4,0.8-6.4l7.2-14.4v-24.8c0-3.2,2.4-6.4,5.6-7.2c16-5.6,26.4-20.8,26.4-37.6
		c0-22.4-17.6-40-40-40S204.4,185.6,204.4,208z"/>
	<path style="fill:#42210B;" d="M348.4,131.2l-104-18.4l-104,18.4v209.6l104,55.2l104-55.2V131.2z M124.4,345.6V124
		c0-4,3.2-7.2,6.4-8l112-20c0.8,0,1.6,0,2.4,0l112,20c4,0.8,6.4,4,6.4,8v221.6c0,3.2-1.6,5.6-4,7.2l-112,59.2
		c-1.6,0.8-2.4,0.8-4,0.8s-2.4,0-4-0.8l-112-59.2C126,351.2,124.4,348.8,124.4,345.6z"/>
	<path style="fill:#42210B;" d="M444.4,312h16v-16h-16V312z M52.4,16v16h16V16H52.4z M84.4,432v-16h-16v16H84.4z M436.4,24h-16v16
		h16V24z M36.4,200v-16h-16v16H36.4z M116.4,110.4v244.8l128,68l128-68V110.4L244.4,88L116.4,110.4z M380.4,448v16h16v-16H380.4z
		 M36.4,248h64V104c0-4,3.2-7.2,6.4-8l41.6-7.2V32h-64v8c0,4.8-3.2,8-8,8h-32c-4.8,0-8-3.2-8-8V8c0-4,3.2-8,8-8h32c4.8,0,8,4,8,8v8
		h72c4,0,8,3.2,8,8v16h24v16h-24v30.4l78.4-13.6c0.8,0,1.6,0,2.4,0l70.4,12V32c0-4.8,4-8,8-8h80v-8c0-4.8,4-8,8-8h32c4,0,8,3.2,8,8
		v32c0,4.8-4,8-8,8h-32c-4,0-8-3.2-8-8v-8h-72v47.2l49.6,8.8c4,0.8,6.4,4,6.4,8v128h24v-32h16v32h24c4,0,8,4,8,8v40h8c4,0,8,4,8,8
		v32c0,4-4,8-8,8h-32c-4,0-8-4-8-8v-32c0-4,4-8,8-8h8v-32h-56v112c0,3.2-1.6,5.6-4,7.2l-67.2,36V448h48v-8c0-4,4-8,8-8h32
		c4,0,8,4,8,8v32c0,4-4,8-8,8h-32c-4,0-8-4-8-8v-8h-56c-4,0-8-4-8-8v-44.8l-52,28c-1.6,0.8-2.4,0.8-4,0.8s-2.4,0-4-0.8l-92-48.8V424
		c0,4-4,8-8,8h-40v8c0,4-3.2,8-8,8h-32c-4.8,0-8-4-8-8v-32c0-4,3.2-8,8-8h32c4.8,0,8,4,8,8v8h32v-34.4l-28-14.4c-2.4-1.6-4-4-4-7.2
		v-96h-24v16h-16v-16h-32c-4.8,0-8-4-8-8v-40h-8c-4,0-8-4-8-8v-32c0-4,4-8,8-8h32c4.8,0,8,4,8,8v32c0,4-3.2,8-8,8h-8V248z"/>
</g>
<g>
</g>
<g>
</g>
<g>
</g>
<g>
</g>
<g>
</g>
<g>
</g>
<g>
</g>
<g>
</g>
<g>
</g>
<g>
</g>
<g>
</g>
<g>
</g>
<g>
</g>
<g>
</g>
<g>
</g>
</svg>
